<svg width="17" height="25" viewBox="0 0 17 25" fill="none" xmlns="http://www.w3.org/2000/svg">
<g clip-path="url(#clip0_17_3826)">
<path d="M4.25 25C6.596 25 8.5 23.1333 8.5 20.8333V16.6667H4.25C1.904 16.6667 0 18.5333 0 20.8333C0 23.1333 1.904 25 4.25 25Z" fill="#0ACF83"/>
<path d="M0 12.5C0 10.2 1.904 8.33333 4.25 8.33333H8.5V16.6667H4.25C1.904 16.6667 0 14.8 0 12.5Z" fill="#A259FF"/>
<path d="M0 4.16667C0 1.86667 1.904 0 4.25 0H8.5V8.33333H4.25C1.904 8.33333 0 6.46667 0 4.16667Z" fill="#F24E1E"/>
<path d="M8.5 0H12.75C15.096 0 17 1.86667 17 4.16667C17 6.46667 15.096 8.33333 12.75 8.33333H8.5V0Z" fill="#FF7262"/>
<path d="M17 12.5C17 14.8 15.096 16.6667 12.75 16.6667C10.404 16.6667 8.5 14.8 8.5 12.5C8.5 10.2 10.404 8.33333 12.75 8.33333C15.096 8.33333 17 10.2 17 12.5Z" fill="#1ABCFE"/>
</g>
<defs>
<clipPath id="clip0_17_3826">
<rect width="17" height="25" fill="white"/>
</clipPath>
</defs>
</svg>
