<svg width="25" height="24" viewBox="0 0 25 24" fill="none" xmlns="http://www.w3.org/2000/svg">
<path fill-rule="evenodd" clip-rule="evenodd" d="M18.8878 8.08276C11.2726 12.6992 9.98981 13.248 6.99237 10.5379C7.73563 13.1276 7.39605 15.0111 6.01074 16.9375C9.43944 15.8925 10.0649 16.8472 11.8054 18.0421C10.7341 14.6599 12.2365 13.547 18.8878 8.08276Z" stroke="#FFB23F" stroke-width="2" stroke-miterlimit="1.5" stroke-linecap="round" stroke-linejoin="round"/>
<path d="M16.0295 14.9601C16.1383 15.3154 16.1814 15.6926 16.2514 16.0569" stroke="#FFB23F" stroke-width="2" stroke-miterlimit="1.5" stroke-linecap="round" stroke-linejoin="round"/>
<path d="M14.5974 17.25C14.8796 17.2067 15.1645 17.1265 15.4435 17.0614" stroke="#FFB23F" stroke-width="2" stroke-miterlimit="1.5" stroke-linecap="round" stroke-linejoin="round"/>
<path d="M16.5938 17.7283C16.5928 18.0772 16.6554 18.5283 16.7651 18.8648" stroke="#FFB23F" stroke-width="2" stroke-miterlimit="1.5" stroke-linecap="round" stroke-linejoin="round"/>
<path d="M17.4941 16.7229C17.8704 16.7533 18.2668 16.6016 18.6428 16.5547" stroke="#FFB23F" stroke-width="2" stroke-miterlimit="1.5" stroke-linecap="round" stroke-linejoin="round"/>
<path d="M9.19556 5.0356C9.23626 5.43412 9.3038 5.82765 9.38291 6.2197" stroke="#FFB23F" stroke-width="2" stroke-miterlimit="1.5" stroke-linecap="round" stroke-linejoin="round"/>
<path d="M7.62964 7.27092C7.92786 7.24423 8.21347 7.2072 8.50713 7.15367" stroke="#FFB23F" stroke-width="2" stroke-miterlimit="1.5" stroke-linecap="round" stroke-linejoin="round"/>
<path d="M9.69824 7.87253C9.70444 8.2453 9.77873 8.64153 9.85433 9.00811" stroke="#FFB23F" stroke-width="2" stroke-miterlimit="1.5" stroke-linecap="round" stroke-linejoin="round"/>
<path d="M10.6406 6.8521C10.9801 6.76746 11.2942 6.65309 11.6453 6.61292" stroke="#FFB23F" stroke-width="2" stroke-miterlimit="1.5" stroke-linecap="round" stroke-linejoin="round"/>
</svg>
