<svg width="25" height="24" viewBox="0 0 25 24" fill="none" xmlns="http://www.w3.org/2000/svg">
<path d="M5.68018 14.8721C5.68018 15.3643 6.06299 15.6924 6.69189 15.6924H9.39893C9.45361 16.9365 10.438 18.044 11.8394 18.044C13.2407 18.044 14.2251 16.9434 14.2866 15.6924H16.9868C17.6157 15.6924 17.9985 15.3643 17.9985 14.8721C17.9985 14.209 17.3491 13.6279 16.7817 13.0537C16.3442 12.6094 16.2349 11.7002 16.1733 10.9072C16.1118 8.39161 15.4351 6.75098 13.7261 6.12891C13.5005 5.28126 12.7964 4.61817 11.8394 4.61817C10.8823 4.61817 10.1851 5.28126 9.95264 6.12891C8.24365 6.75098 7.56689 8.39161 7.50537 10.9072C7.45068 11.7002 7.33447 12.6094 6.89697 13.0537C6.32959 13.6279 5.68018 14.209 5.68018 14.8721ZM7.03369 14.6533V14.5713C7.17041 14.3867 7.55322 14.0176 7.88135 13.6416C8.33936 13.1289 8.55811 12.2607 8.61279 11.0098C8.67432 8.25489 9.50146 7.35938 10.5884 7.06544C10.7524 7.02442 10.8413 6.94923 10.8481 6.77833C10.8755 6.10841 11.2515 5.6504 11.8394 5.6504C12.4272 5.6504 12.8101 6.10841 12.8306 6.77833C12.8442 6.94923 12.9331 7.02442 13.0903 7.06544C14.1772 7.35938 15.0044 8.25489 15.0659 11.0098C15.1274 12.2607 15.3394 13.1289 15.7974 13.6416C16.1323 14.0176 16.5083 14.3867 16.6382 14.5713V14.6533H7.03369ZM10.479 15.6924H13.2065C13.1587 16.5469 12.605 17.0938 11.8394 17.0938C11.0737 17.0938 10.5269 16.5469 10.479 15.6924Z" fill="white" fill-opacity="0.6"/>
</svg>
