<svg width="25" height="24" viewBox="0 0 25 24" fill="none" xmlns="http://www.w3.org/2000/svg">
<path d="M7.67285 18.1602C8.54785 18.1602 10.3525 17.2852 11.6787 16.335C16.2041 16.4443 19.5947 13.8399 19.5947 10.4287C19.5947 7.14747 16.3066 4.5088 12.2119 4.5088C8.11035 4.5088 4.82227 7.14747 4.82227 10.4287C4.82227 12.5547 6.16895 14.4414 8.21289 15.3984C7.91895 15.9522 7.39258 16.6973 7.10547 17.0801C6.74316 17.5586 6.96875 18.1602 7.67285 18.1602ZM8.38379 17.0049C8.32227 17.0322 8.29492 16.9912 8.33594 16.9365C8.69141 16.5059 9.19727 15.8428 9.42285 15.419C9.60742 15.0772 9.55273 14.7764 9.14258 14.5781C7.13281 13.6416 5.9707 12.1445 5.9707 10.4287C5.9707 7.79688 8.73242 5.6504 12.2119 5.6504C15.6846 5.6504 18.4463 7.79688 18.4463 10.4287C18.4463 13.0674 15.6846 15.2139 12.2119 15.2139C12.082 15.2139 11.8906 15.207 11.6445 15.2002C11.3643 15.2002 11.1592 15.2822 10.9131 15.4805C10.1201 16.0547 8.96484 16.7725 8.38379 17.0049Z" fill="white" fill-opacity="0.6"/>
</svg>
