<svg width="32" height="32" viewBox="0 0 32 32" fill="none" xmlns="http://www.w3.org/2000/svg">
<path d="M14 1.1547C15.2376 0.440169 16.7624 0.440169 18 1.1547L27.8564 6.8453C29.094 7.55983 29.8564 8.88034 29.8564 10.3094V21.6906C29.8564 23.1197 29.094 24.4402 27.8564 25.1547L18 30.8453C16.7624 31.5598 15.2376 31.5598 14 30.8453L4.14359 25.1547C2.90599 24.4402 2.14359 23.1197 2.14359 21.6906V10.3094C2.14359 8.88034 2.90599 7.55983 4.14359 6.8453L14 1.1547Z" stroke="url(#paint0_linear_528_5788)"/>
<path d="M15.5 16.8555C16.8877 16.8555 17.8994 15.8232 17.8994 14.3057V9.70508C17.8994 8.19434 16.8877 7.15527 15.5 7.15527C14.1123 7.15527 13.1006 8.19434 13.1006 9.70508V14.3057C13.1006 15.8232 14.1123 16.8555 15.5 16.8555ZM10.3115 14.4629C10.3115 17.2725 12.1777 19.2002 14.8779 19.46V20.8613H12.3623C12.0137 20.8613 11.7197 21.1484 11.7197 21.5039C11.7197 21.8525 12.0137 22.1396 12.3623 22.1396H18.6377C18.9932 22.1396 19.2871 21.8525 19.2871 21.5039C19.2871 21.1484 18.9932 20.8613 18.6377 20.8613H16.1289V19.46C18.8223 19.2002 20.6953 17.2725 20.6953 14.4629V13.1094C20.6953 12.7539 20.4082 12.4736 20.0527 12.4736C19.6973 12.4736 19.4033 12.7539 19.4033 13.1094V14.415C19.4033 16.7393 17.8311 18.2773 15.5 18.2773C13.1689 18.2773 11.5967 16.7393 11.5967 14.415V13.1094C11.5967 12.7539 11.3096 12.4736 10.9541 12.4736C10.5986 12.4736 10.3115 12.7539 10.3115 13.1094V14.4629Z" fill="white" fill-opacity="0.6"/>
<defs>
<linearGradient id="paint0_linear_528_5788" x1="5.2" y1="4" x2="28.4" y2="24.8" gradientUnits="userSpaceOnUse">
<stop stop-color="#A73EE7"/>
<stop offset="1" stop-color="#00EBFF"/>
</linearGradient>
</defs>
</svg>
