<svg width="15" height="12" viewBox="0 0 15 12" fill="none" xmlns="http://www.w3.org/2000/svg">
<path d="M8.68555 11.6934C9.46289 11.6934 10.1953 11.543 10.8828 11.2422C11.5703 10.9453 12.1738 10.5352 12.6934 10.0117C13.2168 9.48828 13.627 8.88281 13.9238 8.19531C14.2246 7.50781 14.375 6.77539 14.375 5.99805C14.375 5.2207 14.2246 4.48828 13.9238 3.80078C13.627 3.11328 13.2168 2.50781 12.6934 1.98438C12.1699 1.46094 11.5645 1.05078 10.877 0.753906C10.1895 0.457031 9.45703 0.308594 8.67969 0.308594C7.95312 0.308594 7.26562 0.4375 6.61719 0.695312C5.97266 0.953125 5.39453 1.3125 4.88281 1.77344C4.375 2.23438 3.95898 2.77148 3.63477 3.38477C3.31055 3.99414 3.10938 4.65039 3.03125 5.35352C3.18359 5.32227 3.35742 5.30273 3.55273 5.29492C3.74805 5.2832 3.92969 5.29102 4.09766 5.31836C4.17188 4.75586 4.3418 4.23438 4.60742 3.75391C4.87305 3.26953 5.21094 2.84766 5.62109 2.48828C6.03125 2.12891 6.49609 1.84961 7.01562 1.65039C7.53516 1.45117 8.08984 1.35156 8.67969 1.35156C9.32422 1.35156 9.92773 1.4707 10.4902 1.70898C11.0527 1.94727 11.5469 2.2793 11.9727 2.70508C12.3984 3.13086 12.7305 3.625 12.9688 4.1875C13.2109 4.75 13.332 5.35352 13.332 5.99805C13.332 6.60742 13.2227 7.18164 13.0039 7.7207C12.7891 8.25586 12.4922 8.72852 12.1133 9.13867C11.9258 8.92383 11.666 8.72266 11.334 8.53516C11.0059 8.34375 10.6172 8.19141 10.168 8.07812C9.71875 7.96094 9.22266 7.90234 8.67969 7.90234C8.42188 7.90234 8.17383 7.91602 7.93555 7.94336C7.70117 7.9707 7.47656 8.00977 7.26172 8.06055C7.33203 8.32617 7.36719 8.60352 7.36719 8.89258C7.36719 9.33789 7.28906 9.75977 7.13281 10.1582C6.97656 10.5566 6.75977 10.9141 6.48242 11.2305C6.82227 11.3789 7.17578 11.4922 7.54297 11.5703C7.91406 11.6523 8.29492 11.6934 8.68555 11.6934ZM8.67969 6.9707C9.03516 6.97461 9.35547 6.88477 9.64062 6.70117C9.92969 6.51758 10.1582 6.26758 10.3262 5.95117C10.4941 5.63477 10.5781 5.27734 10.5781 4.87891C10.5781 4.50781 10.4941 4.16797 10.3262 3.85938C10.1582 3.54688 9.92969 3.29688 9.64062 3.10938C9.35547 2.92188 9.03516 2.82812 8.67969 2.82812C8.32031 2.82812 7.99609 2.92188 7.70703 3.10938C7.42188 3.29688 7.19336 3.54688 7.02148 3.85938C6.85352 4.16797 6.77148 4.50781 6.77539 4.87891C6.77539 5.27734 6.85938 5.63281 7.02734 5.94531C7.19922 6.25781 7.42773 6.50586 7.71289 6.68945C7.99805 6.87305 8.32031 6.9668 8.67969 6.9707ZM3.75195 11.7344C4.13477 11.7344 4.49609 11.6602 4.83594 11.5117C5.17969 11.3633 5.48242 11.1582 5.74414 10.8965C6.00586 10.6348 6.21094 10.334 6.35938 9.99414C6.51172 9.65039 6.58789 9.28516 6.58789 8.89844C6.58789 8.37891 6.45898 7.9043 6.20117 7.47461C5.94727 7.04492 5.60352 6.70312 5.16992 6.44922C4.74023 6.19141 4.26758 6.0625 3.75195 6.0625C3.23242 6.0625 2.75781 6.19141 2.32812 6.44922C1.90234 6.70312 1.56055 7.04492 1.30273 7.47461C1.04492 7.9043 0.916016 8.37891 0.916016 8.89844C0.916016 9.28516 0.990234 9.65039 1.13867 9.99414C1.28711 10.3379 1.49219 10.6406 1.75391 10.9023C2.01172 11.1641 2.3125 11.3672 2.65625 11.5117C3 11.6602 3.36523 11.7344 3.75195 11.7344Z" fill="white" fill-opacity="0.25"/>
</svg>
