<svg width="13" height="12" viewBox="0 0 13 12" fill="none" xmlns="http://www.w3.org/2000/svg">
<path d="M6.66797 11.6758C9.77344 11.6758 12.3457 9.10352 12.3457 5.99805C12.3457 2.89258 9.76758 0.320312 6.66211 0.320312C3.5625 0.320312 0.990234 2.89258 0.990234 5.99805C0.990234 9.10352 3.5625 11.6758 6.66797 11.6758ZM6.66797 7.89062C5.0332 7.89062 3.77344 8.47656 3.19922 9.13867C2.45508 8.30664 2.00391 7.21094 2.00391 5.99805C2.00391 3.40234 4.07227 1.32227 6.66211 1.32227C9.25781 1.32227 11.3379 3.40234 11.3438 5.99805C11.3438 7.21094 10.8926 8.3125 10.1426 9.13867C9.57422 8.47656 8.30859 7.89062 6.66797 7.89062ZM6.66797 6.95898C7.74023 6.9707 8.57227 6.05664 8.57227 4.86719C8.57227 3.74805 7.73438 2.81641 6.66797 2.81641C5.60742 2.81641 4.75781 3.74805 4.76953 4.86719C4.76953 6.05664 5.60156 6.95312 6.66797 6.95898Z" fill="white" fill-opacity="0.25"/>
</svg>
